<svg id="Capa_1" xmlns="http://www.w3.org/2000/svg" viewBox="0 0 33 31"><style>.st0{fill:#53509d}</style><path class="st0" d="M10 17.9c.7 0 1.5-.1 2.2-.2V9.6c-.7-.1-1.4-.2-2.2-.2-4.4 0-8 1.7-8 3.8v.8c0 2.2 3.6 3.9 8 3.9zm0 4.2c.7 0 1.5-.1 2.2-.2v-2.4c-.7.1-1.4.2-2.2.2-3.8 0-7-1.3-7.8-3.1-.1.4-.2.6-.2.9v.8c0 2.2 3.6 3.8 8 3.8zm2.2 1.9v-.2c-.7.2-1.4.2-2.2.2-3.8 0-7-1.3-7.8-3.1-.1.3-.2.6-.2.8v.8c0 2.1 3.6 3.8 8 3.8.9 0 1.7-.1 2.5-.2-.2-.4-.3-.8-.3-1.3V24zm9.2-21c-4.4 0-8 1.7-8 3.8v.8c0 2.1 3.6 3.8 8 3.8s8-1.7 8-3.8v-.8c-.1-2.1-3.6-3.8-8-3.8z"/><path class="st0" d="M21.4 13.3c-3.8 0-7-1.3-7.8-3.1-.1.2-.2.5-.2.7v.8c0 2.1 3.6 3.8 8 3.8s8-1.7 8-3.8V11c0-.2-.1-.5-.2-.7-.8 1.7-4 3-7.8 3z"/><path class="st0" d="M21.4 17.6c-3.8 0-7-1.3-7.8-3.1-.1.2-.2.5-.2.7v.8c0 2.1 3.6 3.8 8 3.8s8-1.7 8-3.8v-.8c0-.2-.1-.5-.2-.7-.8 1.8-4 3.1-7.8 3.1z"/><path class="st0" d="M21.4 22.1c-3.8 0-7-1.3-7.8-3.1-.1.2-.2.5-.2.7v.8c0 2.1 3.6 3.8 8 3.8s8-1.7 8-3.8v-.8c0-.2-.1-.5-.2-.7-.8 1.7-4 3.1-7.8 3.1z"/><path class="st0" d="M21.4 26.3c-3.8 0-7-1.3-7.8-3.1-.1.2-.2.5-.2.7v.8c0 2.1 3.6 3.8 8 3.8s8-1.7 8-3.8V24c0-.2-.1-.5-.2-.7-.8 1.7-4 3-7.8 3z"/></svg>