<svg xmlns="http://www.w3.org/2000/svg" viewBox="0 0 512 512" width="15" height="15"><path d="M406 61h-75V45c0-24.813-20.187-45-45-45h-60c-24.813 0-45 20.187-45 45v16h-75c-24.813 0-45 20.187-45 45v30c0 8.284 6.716 15 15 15h16.194l26.565 319.737C120.688 493.875 140.386 512 163.604 512h184.792c23.218 0 42.916-18.125 44.845-41.267L419.806 151H436c8.284 0 15-6.716 15-15v-30c0-24.813-20.187-45-45-45zM211 45c0-8.271 6.729-15 15-15h60c8.271 0 15 6.729 15 15v16h-90V45zm152.344 423.245c-.643 7.713-7.209 13.755-14.948 13.755H163.604c-7.739 0-14.306-6.042-14.948-13.751L122.298 151h267.404l-26.358 317.245zM421 121H91v-15c0-8.271 6.729-15 15-15h300c8.271 0 15 6.729 15 15v15z" fill="#dcaa53"/><path d="M256 181c-8.284 0-15 6.716-15 15v241c0 8.284 6.716 15 15 15s15-6.716 15-15V196c0-8.284-6.716-15-15-15zm60 0c-8.284 0-15 6.716-15 15v241c0 8.284 6.716 15 15 15s15-6.716 15-15V196c0-8.284-6.716-15-15-15zm-120 0c-8.284 0-15 6.716-15 15v241c0 8.284 6.716 15 15 15s15-6.716 15-15V196c0-8.284-6.716-15-15-15z" fill="#dcaa53"/></svg>