<svg id="Capa_1" xmlns="http://www.w3.org/2000/svg" viewBox="0 0 512 512"><style>.st0{fill:#53509d}.st1{fill:#6c6cc1}</style><path class="st0" d="M80 240H16c-8.8 0-16 7.2-16 16v224c0 8.8 7.2 16 16 16h64c8.8 0 16-7.2 16-16V256c0-8.8-7.2-16-16-16z"/><path class="st1" d="M501.9 274.5c-16.3-21-46.5-24.7-67.3-8.4l-118 91.8c-8.4 6.6-18.8 10.1-29.5 10.1H176c44.2 0 80-35.8 80-80 0-8.8-7.2-16-16-16H96v192h213c17.8 0 35.1-5.9 49.1-16.9l135.4-105.3c20.9-16.2 24.6-46.3 8.4-67.3z"/><path class="st0" d="M272 112c26.5 0 48-21.5 48-48s-21.5-48-48-48-48 21.5-48 48 21.5 48 48 48zm0-64c8.8 0 16 7.2 16 16s-7.2 16-16 16-16-7.2-16-16 7.2-16 16-16zm96 96c-26.5 0-48 21.5-48 48s21.5 48 48 48 48-21.5 48-48-21.5-48-48-48zm0 64c-8.8 0-16-7.2-16-16s7.2-16 16-16 16 7.2 16 16-7.2 16-16 16zm42.2-188.3c-6.8-5.6-16.8-4.7-22.5 2l-160 192c-5.7 6.8-4.7 16.9 2 22.5 3 2.5 6.6 3.7 10.2 3.7 4.6 0 9.2-2 12.3-5.8l160-192c5.8-6.6 4.8-16.8-2-22.4z"/></svg>