<svg xmlns="http://www.w3.org/2000/svg" viewBox="0 0 92.821 92.821" width="30" height="30"><g fill="#53509d"><path d="M77.45 65.06V52.924h-4.452v9.702a2.764 2.764 0 0 1-2.756 2.756H15.106a2.764 2.764 0 0 1-2.756-2.756V29.554a2.764 2.764 0 0 1 2.756-2.759H46.65v-2.827H11.066a3.171 3.171 0 0 0-3.167 3.16V68.22L0 77.704a4.743 4.743 0 0 0 4.738 4.746h75.868a4.743 4.743 0 0 0 4.738-4.746l-7.899-9.484v-3.16h.005zM49.002 80.864H36.354c-.44 0-.791-.351-.791-.791s.351-.791.791-.791h12.644a.791.791 0 0 1 .004 1.582zm-19.358-3.16l2.412-2.895h21.237l2.412 2.895H29.644z"/><path d="M37.485 47.287h6.603v6.596h-6.603zm4.137-9.068h6.599v6.603h-6.599zm6.492 8.281h6.599v6.599h-6.599zm5.247-10.966h7.831v7.831h-7.831zm11.076-24.003h7.831v7.831h-7.831zM50.229 25.693h7.831v7.831h-7.831zm12.308-3.35h11.184v11.184H62.537zm8.353 13.481h13.528v13.532H70.89zm5.121-25.452h16.81v16.81h-16.81zM60.518 44.263h7.831v7.831h-7.831z"/></g></svg>