<svg xmlns="http://www.w3.org/2000/svg" width="25" height="25" viewBox="0 0 32 30"><path d="M31.9 8.9C31.5 3.8 27.8 0 23.3 0c-3 0-5.8 1.6-7.4 4.3C14.4 1.6 11.7 0 8.7 0 4.2 0 .5 3.8.1 8.9c0 .2-.2 1.4.3 3.4.7 2.8 2.2 5.4 4.4 7.5L15.9 30l11.3-10.2c2.2-2 3.8-4.6 4.4-7.5.5-1.9.4-3.1.3-3.4zm-1.4 3.2c-.6 2.6-2 4.9-4.1 6.8l-10.5 9.5-10.3-9.5c-2-1.9-3.5-4.2-4.1-6.8-.4-1.9-.3-2.9-.3-2.9v-.1c.4-4.5 3.5-7.8 7.4-7.8 2.9 0 5.4 1.8 6.6 4.7l.6 1.4.6-1.4c1.2-2.8 3.9-4.7 6.8-4.7 3.9 0 7 3.3 7.4 7.9.1-.1.3 1-.1 2.9z"/></svg>