<svg id="Слой_1" xmlns="http://www.w3.org/2000/svg" viewBox="0 0 30 33.2"><style>.st0{fill:#53509d}</style><path class="st0" d="M10.8 11c3 0 5.5-2.5 5.5-5.5S13.8 0 10.8 0 5.2 2.5 5.2 5.5 7.7 11 10.8 11zm13 9.7c-3.4 0-6.2 2.8-6.2 6.2 0 3.4 2.8 6.2 6.2 6.2S30 30.4 30 27s-2.8-6.3-6.2-6.3zm3.8 5l-4.1 4.1c-.2.2-.5.3-.7.3-.3 0-.5-.1-.7-.3l-2-2c-.4-.4-.4-1.1 0-1.5.4-.4 1.1-.4 1.5 0l1.3 1.3 3.3-3.3c.4-.4 1.1-.4 1.5 0 .3.3.3 1-.1 1.4z"/><path class="st0" d="M21.5 19.3v-1c0-2.1-1.4-4-3.3-4.6l-2.9-.5c-.2-.1-.5.1-.6.3l-3.3 9.1c-.2.5-.9.5-1.1 0L7 13.5c-.1-.2-.3-.3-.5-.3l-3.1.5c-2 .7-3.4 2.5-3.4 4.6v7.6C0 27.1.9 28 2.1 28h13.8c0-.3-.1-.7-.1-1 0-3.7 2.4-6.7 5.7-7.7z"/><path class="st0" d="M12 12.7c-.1-.1-.3-.2-.5-.2H10c-.2 0-.4.1-.5.2-.2.2-.2.5-.1.8l.8 1.1-.4 3 .7 1.9c.1.2.3.2.4 0l.7-1.9-.4-3 .8-1.1c.2-.3.2-.6 0-.8z"/></svg>