<svg xmlns="http://www.w3.org/2000/svg" width="20" height="20" viewBox="0 0 45.829 45.829"><path d="M43.353 18.806h-8.125L29.383 4.724a2.469 2.469 0 0 0-3.229-1.339 2.476 2.476 0 0 0-1.336 3.235l5.056 12.186H15.952l5.056-12.188a2.475 2.475 0 0 0-1.337-3.233 2.47 2.47 0 0 0-3.229 1.341l-5.845 14.08H2.472a2.464 2.464 0 1 0 0 4.929h.852l2.515 13.761a6.261 6.261 0 0 0 6.15 5.138h21.85a6.259 6.259 0 0 0 6.149-5.138l2.516-13.761h.853a2.467 2.467 0 0 0 2.473-2.464 2.471 2.471 0 0 0-2.477-2.465z"/></svg>