<svg id="Capa_1" xmlns="http://www.w3.org/2000/svg" width="25" height="25" viewBox="0 0 32 22.5"><style>.st0{fill:#53509d}</style><path class="st0" d="M1.1 15V1.4C1.1.6 1.7 0 2.5 0h13.6c.8 0 1.4.6 1.4 1.4V15c0 .3-.2.5-.5.5H1.6c-.3-.1-.5-.3-.5-.5zm11 4.6c0 1.6-1.3 2.8-2.8 2.8s-2.8-1.3-2.8-2.8c0-1.6 1.3-2.8 2.8-2.8s2.8 1.3 2.8 2.8zm-1.4 0c0-.8-.6-1.4-1.4-1.4-.8 0-1.4.6-1.4 1.4 0 .8.6 1.4 1.4 1.4.8.1 1.4-.6 1.4-1.4zm-3.9-2.8H.5c-.3 0-.5.2-.5.5v1.4c0 .3.2.5.5.5h5.1c.1-1 .6-1.8 1.2-2.4zM27 19.6c0 1.6-1.3 2.8-2.8 2.8-1.6 0-2.8-1.3-2.8-2.8 0-1.6 1.3-2.8 2.8-2.8 1.5 0 2.8 1.3 2.8 2.8zm-1.4 0c0-.8-.6-1.4-1.4-1.4s-1.4.6-1.4 1.4c0 .8.6 1.4 1.4 1.4s1.4-.6 1.4-1.4zm6.4-2.3v1.4c0 .3-.2.5-.5.5h-3.7c-.3-1.8-1.8-3.2-3.7-3.2s-3.4 1.4-3.7 3.2H13c-.1-.9-.6-1.7-1.3-2.3h7.1V3.7c0-.5.4-.9.9-.9H24c1.2 0 2.3.6 3 1.6l2.8 4.1c.4.6.6 1.3.6 2v6.2h1.1c.3.1.5.3.5.6zm-4.6-8.6l-2.2-3.2c-.1-.1-.2-.2-.4-.2h-3.5c-.3 0-.5.2-.5.5V9c0 .3.2.5.5.5H27c.4-.1.6-.5.4-.8z"/></svg>